<?xml version="1.0" encoding="UTF-8"?>
<svg version="1.1" xmlns="http://www.w3.org/2000/svg" width="246" height="215">
<path d="M0 0 C26.776078 2.82813771 55.28280249 13.02187985 74.32421875 32.5546875 C77.55651662 31.12930893 79.72654465 29.37240803 82.26171875 26.9296875 C101.39428541 9.80619488 132.18854083 -0.00453183 157.76171875 0.2734375 C161.36099064 0.66847954 163.01544787 1.79905774 165.32421875 4.5546875 C167.20691553 8.40125471 167.58015536 11.51803871 167.59837341 15.77893066 C167.60834854 17.03228714 167.61832367 18.28564362 167.62860107 19.57698059 C167.62949677 20.95822131 167.63016039 22.33946219 167.63061523 23.72070312 C167.63824007 25.18129397 167.64666813 26.64188081 167.65583801 28.10246277 C167.67775255 32.06312769 167.6865773 36.02371543 167.69166446 39.98443413 C167.69531033 42.45946541 167.70155146 44.93447653 167.70866585 47.40950012 C167.73314561 56.04530728 167.74620995 64.68105445 167.74975586 73.31689453 C167.75339442 81.36558456 167.78331626 89.41389403 167.82516044 97.46246767 C167.85984098 104.37555388 167.87530387 111.28851375 167.87600189 118.20168638 C167.8767952 122.3295073 167.88555875 126.45694003 167.91399956 130.58467102 C167.94014371 134.46560212 167.94240655 138.34582207 167.92634392 142.22680092 C167.92452672 143.65022137 167.9312448 145.0736824 167.94716263 146.497015 C167.96758069 148.44138617 167.9540966 150.38602496 167.93894958 152.33044434 C167.94096091 153.41811852 167.94297224 154.50579269 167.94504452 155.6264267 C167.11392659 159.54657658 165.38392594 161.05450193 162.32421875 163.5546875 C159.37109375 164.375 159.37109375 164.375 156.07421875 164.6796875 C154.84058594 164.82019531 153.60695312 164.96070313 152.3359375 165.10546875 C151.68286621 165.17588379 151.02979492 165.24629883 150.35693359 165.31884766 C131.52081762 167.50425338 112.34130028 172.51467652 97.32421875 184.5546875 C96.66421875 184.5546875 96.00421875 184.5546875 95.32421875 184.5546875 C95.65421875 185.2146875 95.98421875 185.8746875 96.32421875 186.5546875 C96.93910156 186.2659375 97.55398437 185.9771875 98.1875 185.6796875 C98.99574219 185.3084375 99.80398437 184.9371875 100.63671875 184.5546875 C101.43722656 184.1834375 102.23773438 183.8121875 103.0625 183.4296875 C105.32421875 182.5546875 105.32421875 182.5546875 108.32421875 182.5546875 C108.65421875 181.8946875 108.98421875 181.2346875 109.32421875 180.5546875 C111.265625 179.84375 111.265625 179.84375 113.88671875 179.1796875 C114.88960937 178.92445313 115.8925 178.66921875 116.92578125 178.40625 C118.04726562 178.12523437 119.16875 177.84421875 120.32421875 177.5546875 C121.50757813 177.23242188 122.6909375 176.91015625 123.91015625 176.578125 C131.31146693 174.61144813 138.69198041 173.03775801 146.26171875 171.8671875 C147.0105835 171.74794922 147.75944824 171.62871094 148.53100586 171.50585938 C154.06322333 170.70032661 159.58902858 170.32663089 165.16625977 170.01635742 C165.95238899 169.97142906 166.73851822 169.9265007 167.54846954 169.88021088 C169.47364395 169.7703746 171.39892144 169.6623478 173.32421875 169.5546875 C173.31169067 168.70993866 173.2991626 167.86518982 173.28625488 166.99484253 C172.22685065 95.13372351 172.22685065 95.13372351 172.14697266 64.62506104 C172.14017204 62.34001397 172.12995416 60.05497435 172.11621094 57.7699585 C172.09855289 54.62781293 172.09405657 51.48593881 172.09375 48.34375 C172.08303215 46.992742 172.08303215 46.992742 172.07209778 45.61444092 C172.09267637 39.95604442 172.3981223 34.59589242 175.51171875 29.6796875 C178.44255747 27.86054622 180.90352147 27.67064334 184.32421875 27.5546875 C188.33940938 29.06985378 189.92790228 29.9602128 192.32421875 33.5546875 C193.67124354 39.88459601 193.41791499 46.2470925 193.3515625 52.69140625 C193.33892469 55.0657538 193.32656312 57.44010283 193.31445312 59.81445312 C193.28956962 63.54081894 193.26149656 67.26710707 193.22827148 70.9934082 C193.19813439 74.60107936 193.18032238 78.20864968 193.1640625 81.81640625 C193.15060287 82.93311203 193.13714325 84.04981781 193.12327576 85.20036316 C193.119897 86.23856705 193.11651825 87.27677094 193.11303711 88.34643555 C193.10185097 89.71375069 193.10185097 89.71375069 193.09043884 91.10868835 C193.33826642 93.70166588 194.01105834 95.32641038 195.32421875 97.5546875 C194.66421875 98.5446875 194.00421875 99.5346875 193.32421875 100.5546875 C192.95623182 103.26544294 192.95623182 103.26544294 192.91015625 106.31640625 C192.85214844 107.99379883 192.85214844 107.99379883 192.79296875 109.70507812 C192.76203125 110.87232422 192.73109375 112.03957031 192.69921875 113.2421875 C192.64121094 115.01045898 192.64121094 115.01045898 192.58203125 116.81445312 C192.48767484 119.72770727 192.40208714 122.64095357 192.32421875 125.5546875 C192.98421875 125.8846875 193.64421875 126.2146875 194.32421875 126.5546875 C193.99421875 127.2146875 193.66421875 127.8746875 193.32421875 128.5546875 C193.22560039 130.19278376 193.18868762 131.83478009 193.18237305 133.47583008 C193.17533859 134.50061966 193.16830414 135.52540924 193.16105652 136.58125305 C193.1548101 138.24839607 193.1548101 138.24839607 193.1484375 139.94921875 C193.12523921 142.28972253 193.10112187 144.63021736 193.07617188 146.97070312 C193.04104129 150.67071524 193.01170711 154.37039797 192.99829102 158.07055664 C192.98282893 161.63468573 192.94262677 165.19784528 192.8984375 168.76171875 C192.90034592 169.86707474 192.90225433 170.97243073 192.90422058 172.11128235 C192.78279521 179.72659936 192.78279521 179.72659936 190.60083008 183.66674805 C186.60525731 186.9801812 183.06292063 187.78031688 177.95703125 188.046875 C176.91820801 188.1097168 175.87938477 188.17255859 174.80908203 188.23730469 C173.70032715 188.30079102 172.59157227 188.36427734 171.44921875 188.4296875 C145.16048272 190.22852574 114.99911088 194.49123857 92.99658203 210.25634766 C86.39849463 214.95653319 81.07887672 216.76377811 72.81640625 216.265625 C68.32823663 215.35192604 65.13024792 213.67916178 61.47265625 210.96484375 C59.37753968 209.39566768 59.37753968 209.39566768 56.73828125 209.05078125 C54.32421875 208.5546875 54.32421875 208.5546875 52.97265625 207.19921875 C50.42799175 204.66058426 47.23020888 203.57018945 43.94921875 202.2421875 C43.20462402 201.94022461 42.4600293 201.63826172 41.69287109 201.32714844 C20.89870304 193.13979305 -0.11010757 189.67704257 -22.31347656 188.28808594 C-23.83473145 188.18608887 -23.83473145 188.18608887 -25.38671875 188.08203125 C-26.28696777 188.02781006 -27.1872168 187.97358887 -28.11474609 187.91772461 C-32.24531287 187.33220003 -34.94422404 186.30714634 -37.86328125 183.3046875 C-41.10642725 178.38405219 -41.92615867 173.89574304 -41.91870117 168.06445312 C-41.92172745 166.78132736 -41.92475372 165.4982016 -41.9278717 164.17619324 C-41.92093221 162.77110664 -41.91371625 161.36602139 -41.90625 159.9609375 C-41.90547613 158.47858195 -41.90548999 156.99622581 -41.90623474 155.51387024 C-41.90528834 151.52242743 -41.89106533 147.53113776 -41.87342072 143.5397377 C-41.86328387 141.05533081 -41.85655231 138.57093846 -41.85101318 136.08651733 C-41.79930929 113.18358826 -41.64284376 90.28077875 -41.32745743 67.37991333 C-41.30086161 65.37325105 -41.27741582 63.36657325 -41.25473022 61.35986328 C-41.20986868 57.63941564 -41.15204209 53.91941195 -41.08984375 50.19921875 C-41.07827744 49.11401443 -41.06671112 48.02881012 -41.05479431 46.91072083 C-40.93419561 40.80863468 -40.77432134 35.05225431 -37.55078125 29.6796875 C-34.43561119 27.81058546 -31.24213642 27.31244451 -27.67578125 27.5546875 C-22.24368248 30.41888503 -22.24368248 30.41888503 -20.67578125 33.5546875 C-18.01439582 57.76338914 -19.52219844 82.92527006 -19.54541016 107.23266602 C-19.55118157 113.3398558 -19.54776812 119.44700233 -19.54183769 125.55419064 C-19.53823369 130.28526642 -19.53936863 135.01633182 -19.54196548 139.74740791 C-19.54263136 142.00209114 -19.54181822 144.25677532 -19.53948593 146.51145744 C-19.53695405 149.63779108 -19.54080422 152.76405262 -19.54638672 155.89038086 C-19.54436249 156.81540909 -19.54233826 157.74043732 -19.54025269 158.6934967 C-19.54448242 159.96844498 -19.54448242 159.96844498 -19.54879761 161.26914978 C-19.54917463 162.00470061 -19.54955166 162.74025145 -19.54994011 163.4980917 C-19.6800894 165.62509477 -20.09453612 167.50859799 -20.67578125 169.5546875 C-19.66902344 169.59207031 -18.66226562 169.62945312 -17.625 169.66796875 C-2.0495701 170.35249999 12.96746513 172.66325709 28.00390625 176.78515625 C31.2140886 177.66317716 31.2140886 177.66317716 34.14453125 177.54296875 C36.32421875 177.5546875 36.32421875 177.5546875 38.32421875 179.5546875 C40.07139522 180.300262 41.84706802 180.98027526 43.63671875 181.6171875 C44.58160156 181.95878906 45.52648437 182.30039063 46.5 182.65234375 C49.1020304 183.48369786 51.63698658 184.0798942 54.32421875 184.5546875 C54.32421875 185.2146875 54.32421875 185.8746875 54.32421875 186.5546875 C54.98421875 186.2246875 55.64421875 185.8946875 56.32421875 185.5546875 C38.87490945 173.8623766 21.5282947 166.76566688 0.37475586 165.2746582 C-4.65516304 164.8782835 -8.31853111 164.01795705 -12.67578125 161.5546875 C-14.69832019 157.75488031 -14.92249694 154.51427472 -14.91197205 150.2545166 C-14.91353302 148.98433182 -14.91509399 147.71414703 -14.91670227 146.4054718 C-14.90815559 145.00533917 -14.89937392 143.60520796 -14.89038086 142.20507812 C-14.88813869 140.72478839 -14.88671501 139.24449722 -14.88604736 137.76420593 C-14.88124623 133.74975549 -14.86315369 129.73547285 -14.84129786 125.72108269 C-14.82813353 123.21256306 -14.81763691 120.70404654 -14.80804634 118.19551086 C-14.77427419 109.44292141 -14.72902462 100.69046938 -14.67407227 91.93798828 C-14.62318609 83.78038095 -14.59856044 75.62297359 -14.58588213 67.4652257 C-14.57374587 60.45860502 -14.54251741 53.45223473 -14.49659735 46.44575453 C-14.46954662 42.26212531 -14.45039751 38.07882022 -14.45075798 33.89509583 C-14.4504971 29.96149476 -14.42651139 26.02874474 -14.38430786 22.09537697 C-14.37287424 20.6526643 -14.36991883 19.20985556 -14.37610054 17.76711082 C-14.38322608 15.79630896 -14.35667767 13.82547135 -14.32847595 11.8548584 C-14.32311294 10.75243553 -14.31774992 9.65001266 -14.31222439 8.51418304 C-12.61809292 0.63637867 -6.93521786 -0.2688682 0 0 Z M5.32421875 19.5546875 C5.32421875 61.4646875 5.32421875 103.3746875 5.32421875 146.5546875 C11.92421875 147.8746875 18.52421875 149.1946875 25.32421875 150.5546875 C39.67042977 154.7911525 51.98583505 160.14215316 64.32421875 168.5546875 C64.98421875 168.2246875 65.64421875 167.8946875 66.32421875 167.5546875 C66.24042969 166.91402344 66.15664062 166.27335938 66.0703125 165.61328125 C65.44455692 160.29831926 65.42881649 155.81517575 66.32421875 150.5546875 C65.99421875 150.2246875 65.66421875 149.8946875 65.32421875 149.5546875 C65.41534851 147.96726595 65.57254993 146.38342971 65.76171875 144.8046875 C66.16861639 141.36408466 66.47575149 138.02175661 66.32421875 134.5546875 C65.99421875 134.2246875 65.66421875 133.8946875 65.32421875 133.5546875 C65.6272235 131.21722228 65.9627992 128.88383573 66.32421875 126.5546875 C66.32421875 125.5646875 66.32421875 124.5746875 66.32421875 123.5546875 C66.32902578 122.17716294 66.33437591 120.79964024 66.34008789 119.42211914 C66.35804911 114.81600597 66.36962964 110.20989758 66.37915039 105.60375977 C66.38419144 103.61449659 66.39102416 101.62523715 66.3996582 99.63598633 C66.4117841 96.76642958 66.41745903 93.89692144 66.421875 91.02734375 C66.42703629 90.13870132 66.43219757 89.2500589 66.43751526 88.33448792 C66.43759079 87.50360153 66.43766632 86.67271515 66.43774414 85.81665039 C66.43996475 85.08845596 66.44218536 84.36026154 66.44447327 83.61000061 C66.31985692 81.48013786 65.85344378 79.61574514 65.32421875 77.5546875 C65.43180804 75.92470979 65.60238313 74.29807921 65.82421875 72.6796875 C66.28391689 68.69951622 66.09664522 65.50264502 65.32421875 61.5546875 C65.40671875 60.2759375 65.48921875 58.9971875 65.57421875 57.6796875 C65.63674366 51.11457228 61.38144922 46.49796224 57.07421875 41.9296875 C50.61486927 35.86720483 43.58230841 32.02078995 35.51171875 28.4921875 C34.80885742 28.17580322 34.10599609 27.85941895 33.38183594 27.53344727 C24.21415816 23.68195521 15.2320144 22.03163641 5.32421875 19.5546875 Z M96.32421875 39.5546875 C95.39609375 40.1940625 94.46796875 40.8334375 93.51171875 41.4921875 C89.3782804 45.38942938 85.53158512 50.9058831 85.20117092 56.71982861 C85.20209271 57.56511277 85.20301451 58.41039694 85.20396423 59.28129578 C85.20258957 60.25304749 85.2012149 61.22479919 85.19979858 62.22599792 C85.20339386 63.29054703 85.20698914 64.35509613 85.21069336 65.4519043 C85.21054733 66.57400299 85.21040131 67.69610168 85.21025085 68.85220337 C85.21094877 72.56945718 85.21873558 76.28666117 85.2265625 80.00390625 C85.22842711 82.5779467 85.22985081 85.15198751 85.23085022 87.72602844 C85.23428118 93.81394278 85.24216657 99.90183649 85.25219971 105.98974305 C85.26337454 112.92075444 85.26887475 119.85176667 85.27389514 126.78278482 C85.28434954 141.04009535 85.30194045 155.29739079 85.32421875 169.5546875 C86.0784462 169.07262344 86.83267365 168.59055939 87.60975647 168.09388733 C88.59971115 167.46228195 89.58966583 166.83067657 90.60961914 166.17993164 C91.59072159 165.55349258 92.57182404 164.92705353 93.58265686 164.28163147 C108.83606861 154.67331749 125.77834069 150.00141719 143.4296875 147.09765625 C146.2088068 146.858305 146.2088068 146.858305 147.32421875 145.5546875 C147.42019079 143.96046714 147.44609799 142.361983 147.44447327 140.76487732 C147.44584793 139.72856171 147.4472226 138.69224609 147.44863892 137.62452698 C147.44504364 136.47798141 147.44144836 135.33143585 147.43774414 134.15014648 C147.43789017 132.95031128 147.43803619 131.75047607 147.43818665 130.51428223 C147.43760769 127.21483559 147.43257853 123.91545086 147.42561269 120.6160152 C147.41937848 117.17134453 147.4187753 113.72667312 147.41758728 110.28199768 C147.41447416 103.7548602 147.40626104 97.22773939 147.39623779 90.70060927 C147.38507605 83.27146734 147.37956605 75.84232464 147.37454236 68.41317642 C147.36407841 53.12700378 147.34647935 37.84084778 147.32421875 22.5546875 C146.66421875 22.5546875 146.00421875 22.5546875 145.32421875 22.5546875 C145.98421875 21.8946875 146.64421875 21.2346875 147.32421875 20.5546875 C130.6124743 19.45171237 109.07579309 29.39447938 96.32421875 39.5546875 Z M93.32421875 186.5546875 C92.99421875 187.2146875 92.66421875 187.8746875 92.32421875 188.5546875 C92.98421875 188.5546875 93.64421875 188.5546875 94.32421875 188.5546875 C93.99421875 187.8946875 93.66421875 187.2346875 93.32421875 186.5546875 Z " fill="#F8F8F8" transform="translate(46.67578125,-0.5546875)"/>
<path d="M0 0 C0.33 0 0.66 0 1 0 C1.00634791 1.12313662 1.00634791 1.12313662 1.01282406 2.26896286 C1.11608455 20.47963091 1.22471543 38.69025966 1.33933926 56.90085983 C1.39464044 65.70733057 1.44811735 74.51380537 1.49731445 83.3203125 C1.54019431 90.99517819 1.58648192 98.67001442 1.63687855 106.34483457 C1.66344884 110.40937193 1.68830116 114.47390357 1.70907402 118.53847504 C1.72867561 122.36333819 1.75282992 126.18814543 1.78049088 130.01295853 C1.78984266 131.41741799 1.79752465 132.82188972 1.80341911 134.22636795 C1.81171204 136.14302246 1.82657748 138.05964518 1.84178162 139.97625732 C1.84823417 141.04922436 1.85468672 142.12219139 1.8613348 143.22767258 C1.98254742 145.65107128 2.30168761 147.68680853 3 150 C-0.13136683 147.4379726 -0.93126316 144.84677434 -2 141 C-2.24723816 137.88635254 -2.24723816 137.88635254 -2.24291992 134.50976562 C-2.24595123 133.22664993 -2.24898254 131.94353424 -2.25210571 130.62153625 C-2.24516745 129.21643946 -2.23794619 127.81134403 -2.23046875 126.40625 C-2.22965239 124.92380292 -2.2296204 123.44135522 -2.23031616 121.95890808 C-2.22926575 117.96742289 -2.21496598 113.97608877 -2.19743729 109.98464584 C-2.18750418 107.50104396 -2.18121877 105.01746045 -2.17623901 102.53384399 C-2.12990775 79.59064222 -1.94613866 56.64921249 -1.5933876 33.70864868 C-1.56254651 31.69054356 -1.53297879 29.67242244 -1.50350952 27.65429688 C-1.44689254 23.91914653 -1.38322037 20.1841991 -1.31640625 16.44921875 C-1.29131485 14.80592842 -1.29131485 14.80592842 -1.26571655 13.12944031 C-1.24578644 12.12468155 -1.22585632 11.11992279 -1.20532227 10.0847168 C-1.18977798 9.21759567 -1.1742337 8.35047455 -1.15821838 7.45707703 C-0.99343441 4.89803858 -0.5581852 2.50032074 0 0 Z " fill="#D8D9D9" transform="translate(7,33)"/>
<path d="M0 0 C16.82612778 1.7735049 33.37473982 10.98164616 45.3515625 22.6875 C50.56728727 30.00434612 51.57588712 36.74597379 51.45410156 45.57836914 C51.45468567 46.70134399 51.45526978 47.82431885 51.45587158 48.98132324 C51.45310106 52.66625667 51.42205644 56.35036539 51.390625 60.03515625 C51.38315898 62.60061705 51.37746775 65.16608357 51.37347412 67.73155212 C51.35979996 73.77692132 51.3283254 79.82194047 51.28807616 85.8671698 C51.24322304 92.75475133 51.22133756 99.64234751 51.20129442 106.53003895 C51.15958813 120.68685402 51.08932117 134.84341094 51 149 C49.35 148.34 47.7 147.68 46 147 C46.99 146.67 47.98 146.34 49 146 C48.90460938 145.35933594 48.80921875 144.71867188 48.7109375 144.05859375 C47.98587367 138.40140965 48.0194911 134.35902409 50 129 C49.34 128.67 48.68 128.34 48 128 C48.96355353 117.44191344 48.96355353 117.44191344 50 113 C49.01 112.505 49.01 112.505 48 112 C48.66 109.69 49.32 107.38 50 105 C49.01 104.505 49.01 104.505 48 104 C48.52268466 101.23723823 49.10869587 98.6739124 50 96 C49.01 95.505 49.01 95.505 48 95 C48.495 93.515 48.495 93.515 49 92 C49.09590461 89.61740382 49.13074273 87.23218093 49.1328125 84.84765625 C49.13376923 84.15111435 49.13472595 83.45457245 49.13571167 82.73692322 C49.1363915 81.26512563 49.13455095 79.79332502 49.13037109 78.3215332 C49.12502809 76.07431255 49.13031853 73.8272925 49.13671875 71.58007812 C49.13605778 70.14843706 49.13477621 68.71679612 49.1328125 67.28515625 C49.13112061 65.33428101 49.13112061 65.33428101 49.12939453 63.34399414 C49.02504134 60.64715337 48.72904933 58.56053647 48 56 C48.10758929 54.37002229 48.27816438 52.74339171 48.5 51.125 C48.95969814 47.14482872 48.77242647 43.94795752 48 40 C48.0825 38.72125 48.165 37.4425 48.25 36.125 C48.28450378 30.0753372 45.06493784 26.15436428 41.015625 21.9296875 C29.37080858 11.06945091 14.95787247 5.72353867 0 1 C0 0.67 0 0.34 0 0 Z " fill="#CDCDCE" transform="translate(63,21)"/>
<path d="M0 0 C0.33 0.66 0.66 1.32 1 2 C0.33600427 3.66773256 -0.33103101 5.33425611 -1 7 C-1.29013094 9.41429543 -1.29013094 9.41429543 -1.24050903 11.92915344 C-1.24325836 12.89524033 -1.24600769 13.86132721 -1.24884033 14.85668945 C-1.2380545 16.42870117 -1.2380545 16.42870117 -1.22705078 18.0324707 C-1.22734283 19.14510788 -1.22763489 20.25774506 -1.22793579 21.40409851 C-1.22654357 25.07807236 -1.21098715 28.75184287 -1.1953125 32.42578125 C-1.19158199 34.97454213 -1.1887352 37.52330444 -1.18673706 40.07206726 C-1.17988361 46.09265587 -1.1641241 52.11315733 -1.14403808 58.13371104 C-1.12166238 64.98979267 -1.11068145 71.84587784 -1.10064721 78.70198691 C-1.07975736 92.80136491 -1.04459183 106.90067846 -1 121 C-0.01 121 0.98 121 2 121 C0.35 121.99 -1.3 122.98 -3 124 C-4.58264949 122.41735051 -4.13583329 120.80931683 -4.14717102 118.61242676 C-4.15432632 117.66484497 -4.16148163 116.71726318 -4.16885376 115.7409668 C-4.17154266 114.69271729 -4.17423157 113.64446777 -4.17700195 112.56445312 C-4.18357315 111.46685669 -4.19014435 110.36926025 -4.19691467 109.23840332 C-4.21671201 105.58601827 -4.22832726 101.93367453 -4.23828125 98.28125 C-4.24235678 97.03568832 -4.2464323 95.79012665 -4.25063133 94.50682068 C-4.26936615 88.59026408 -4.28392189 82.67372067 -4.2922433 76.75714159 C-4.30199266 69.93809333 -4.32824416 63.11937169 -4.36874419 56.3004384 C-4.40264639 50.38820095 -4.41439726 44.47604259 -4.41844749 38.56370544 C-4.42331438 36.05356133 -4.43493118 33.54342071 -4.45348549 31.03334045 C-4.47788615 27.51219944 -4.47690911 23.99190318 -4.4699707 20.47070312 C-4.48278076 19.43864746 -4.49559082 18.4065918 -4.50878906 17.34326172 C-4.46131127 10.71000518 -3.19383408 5.8241395 0 0 Z " fill="#D0D2D2" transform="translate(134,47)"/>
<path d="M0 0 C10.20802219 1.18020677 19.17885487 7.63954155 27 14 C27.969375 14.721875 28.93875 15.44375 29.9375 16.1875 C32 18 32 18 33 21 C25.81783567 18.72564796 18.9241798 15.96415819 12 13 C16.25061356 11.58312881 18.71851625 12.80679961 23 14 C23 14.66 23 15.32 23 16 C23.66 15.67 24.32 15.34 25 15 C16.9294381 9.59213443 9.04363822 4.6728245 0 1 C0 0.67 0 0.34 0 0 Z " fill="#CCCCCD" transform="translate(78,170)"/>
<path d="M0 0 C0.66 0.33 1.32 0.66 2 1 C0.3790787 2.17232685 -1.24686833 3.3377077 -2.875 4.5 C-3.77992188 5.1496875 -4.68484375 5.799375 -5.6171875 6.46875 C-8 8 -8 8 -10 8 C-9.67 8.66 -9.34 9.32 -9 10 C-8.09507812 9.54947266 -8.09507812 9.54947266 -7.171875 9.08984375 C-5.97304687 8.51943359 -5.97304687 8.51943359 -4.75 7.9375 C-3.96109375 7.55464844 -3.1721875 7.17179688 -2.359375 6.77734375 C0.31032626 5.89775675 1.37312137 6.22211435 4 7 C1.48159568 8.13071214 -1.03948931 9.25464988 -3.5625 10.375 C-4.26697266 10.69210938 -4.97144531 11.00921875 -5.69726562 11.3359375 C-10.07662336 13.27334922 -14.36448919 14.7939144 -19 16 C-13.88883358 9.36929762 -7.54485642 3.77242821 0 0 Z M-12 10 C-12.33 10.66 -12.66 11.32 -13 12 C-12.34 12 -11.68 12 -11 12 C-11.33 11.34 -11.66 10.68 -12 10 Z " fill="#C8C9CA" transform="translate(152,176)"/>
<path d="M0 0 C0.33 0 0.66 0 1 0 C1 8.58 1 17.16 1 26 C0.01 25.67 -0.98 25.34 -2 25 C-1.91621094 24.13117188 -1.83242187 23.26234375 -1.74609375 22.3671875 C-1.64425781 21.21476562 -1.54242188 20.06234375 -1.4375 18.875 C-1.33308594 17.73804687 -1.22867188 16.60109375 -1.12109375 15.4296875 C-1.0037556 12.10636816 -1.44997924 9.2634565 -2 6 C-1.0625 2.625 -1.0625 2.625 0 0 Z " fill="#D8D9D9" transform="translate(113,55)"/>
<path d="M0 0 C0.33 0 0.66 0 1 0 C1.02505615 0.82725586 1.0501123 1.65451172 1.07592773 2.50683594 C1.19196349 6.25471192 1.314656 10.00234125 1.4375 13.75 C1.47681641 15.05195313 1.51613281 16.35390625 1.55664062 17.6953125 C1.59853516 18.94570312 1.64042969 20.19609375 1.68359375 21.484375 C1.73858032 23.21252441 1.73858032 23.21252441 1.79467773 24.97558594 C1.96452174 27.47740224 2.27968475 29.61091168 3 32 C3.99 32 4.98 32 6 32 C4.35 32.99 2.7 33.98 1 35 C0 34 0 34 -0.11352539 30.76538086 C-0.11336631 29.33185874 -0.10767407 27.89833088 -0.09765625 26.46484375 C-0.0962413 25.71159317 -0.09482635 24.95834259 -0.09336853 24.18226624 C-0.08775376 21.7673044 -0.07519883 19.35243399 -0.0625 16.9375 C-0.0574869 15.30403779 -0.05292366 13.67057414 -0.04882812 12.03710938 C-0.03777954 8.02470415 -0.02050506 4.01236759 0 0 Z " fill="#DADCDC" transform="translate(130,136)"/>
<path d="M0 0 C5.39026228 0.52895097 9.24229489 2.46333696 13.875 5.0625 C14.56335938 5.43955078 15.25171875 5.81660156 15.9609375 6.20507812 C17.6449213 7.12893035 19.32307467 8.06339667 21 9 C19.1875 9.625 19.1875 9.625 17 10 C16.01 9.34 15.02 8.68 14 8 C11.61213137 6.77131789 9.22025554 5.56318027 6.8125 4.375 C6.15830078 4.05015625 5.50410156 3.7253125 4.83007812 3.390625 C3.22095188 2.5919346 1.61059545 1.79572351 0 1 C0 0.67 0 0.34 0 0 Z " fill="#CACBCC" transform="translate(87,199)"/>
<path d="M0 0 C0.33 0 0.66 0 1 0 C1 1.65 1 3.3 1 5 C0.67 5 0.34 5 0 5 C0 3.35 0 1.7 0 0 Z " fill="#FBFBFC" transform="translate(240,117)"/>
<path d="M0 0 C0.33 0 0.66 0 1 0 C1 1.65 1 3.3 1 5 C0.67 5 0.34 5 0 5 C0 3.35 0 1.7 0 0 Z " fill="#FAF9F9" transform="translate(215,60)"/>
<path d="M0 0 C4 1 4 1 4 1 Z " fill="#F5F5F4" transform="translate(76,198)"/>
<path d="M0 0 C0.66 0 1.32 0 2 0 C2 0.66 2 1.32 2 2 C1.34 2 0.68 2 0 2 C0 1.34 0 0.68 0 0 Z " fill="#F8F7F8" transform="translate(54,166)"/>
<path d="M0 0 C1 4 1 4 1 4 Z " fill="#FBFCFC" transform="translate(240,109)"/>
<path d="M0 0 C3 1 3 1 3 1 Z " fill="#F3F2F4" transform="translate(43,190)"/>
<path d="M0 0 C3 1 3 1 3 1 Z " fill="#F3F4F4" transform="translate(217,188)"/>
<path d="M0 0 C3 1 3 1 3 1 Z " fill="#F9F9F8" transform="translate(151,180)"/>
<path d="M0 0 C3 1 3 1 3 1 Z " fill="#F8F7F8" transform="translate(64,172)"/>
<path d="" fill="#F9F9F9" transform="translate(0,0)"/>
<path d="" fill="#F9F8F9" transform="translate(0,0)"/>
<path d="" fill="#FBFCFB" transform="translate(0,0)"/>
<path d="" fill="#F9F8FA" transform="translate(0,0)"/>
<path d="" fill="#F6F6F7" transform="translate(0,0)"/>
<path d="M0 0 C3 1 3 1 3 1 Z " fill="#F9F9F9" transform="translate(75,28)"/>
<path d="M0 0 C3 1 3 1 3 1 Z " fill="#F7F7F7" transform="translate(179,1)"/>
<path d="M0 0 C2 1 2 1 2 1 Z " fill="#F6F6F4" transform="translate(144,207)"/>
<path d="M0 0 C2 1 2 1 2 1 Z " fill="#F5F3F4" transform="translate(93,204)"/>
<path d="M0 0 C2 1 2 1 2 1 Z " fill="#F6F4F6" transform="translate(69,196)"/>
<path d="M0 0 C2 1 2 1 2 1 Z " fill="#F2F3F3" transform="translate(225,188)"/>
<path d="M0 0 C2 1 2 1 2 1 Z " fill="#F6F7F7" transform="translate(147,182)"/>
<path d="" fill="#F8F7F8" transform="translate(0,0)"/>
<path d="" fill="#F9FAF9" transform="translate(0,0)"/>
<path d="M0 0 C2 1 2 1 2 1 Z " fill="#F8F8F8" transform="translate(159,175)"/>
<path d="M0 0 C2 1 2 1 2 1 Z " fill="#FAF9FA" transform="translate(170,174)"/>
<path d="M0 0 C2 1 2 1 2 1 Z " fill="#FAF9FA" transform="translate(77,172)"/>
<path d="M0 0 C2 1 2 1 2 1 Z " fill="#FAF9FB" transform="translate(182,171)"/>
<path d="" fill="#F9F9FA" transform="translate(0,0)"/>
<path d="M0 0 C2 1 2 1 2 1 Z " fill="#F9F9F9" transform="translate(190,170)"/>
<path d="M0 0 C2 1 2 1 2 1 Z " fill="#F8F9FA" transform="translate(188,166)"/>
<path d="" fill="#F8F8F8" transform="translate(0,0)"/>
<path d="M0 0 C2 1 2 1 2 1 Z " fill="#FAF9FA" transform="translate(105,162)"/>
<path d="" fill="#F9FAF9" transform="translate(0,0)"/>
<path d="" fill="#F8FAFA" transform="translate(0,0)"/>
<path d="M0 0 C2 1 2 1 2 1 Z " fill="#FAFAFA" transform="translate(79,149)"/>
<path d="" fill="#FBFBFD" transform="translate(0,0)"/>
<path d="" fill="#F9F9FA" transform="translate(0,0)"/>
<path d="" fill="#FAFAFA" transform="translate(0,0)"/>
<path d="" fill="#FBFAFB" transform="translate(0,0)"/>
<path d="" fill="#FAF9FA" transform="translate(0,0)"/>
<path d="" fill="#FBFAFB" transform="translate(0,0)"/>
<path d="" fill="#F9F9FA" transform="translate(0,0)"/>
<path d="" fill="#F8F7F8" transform="translate(0,0)"/>
<path d="" fill="#F7F7F9" transform="translate(0,0)"/>
<path d="" fill="#F9F7F9" transform="translate(0,0)"/>
<path d="" fill="#F7F8F9" transform="translate(0,0)"/>
<path d="M0 0 C2 1 2 1 2 1 Z " fill="#FAF7F9" transform="translate(93,36)"/>
<path d="M0 0 C2 1 2 1 2 1 Z " fill="#FBFBFC" transform="translate(119,29)"/>
<path d="M0 0 C2 1 2 1 2 1 Z " fill="#F6F6F7" transform="translate(220,28)"/>
<path d="" fill="#F4F5F5" transform="translate(0,0)"/>
<path d="M0 0 C2 1 2 1 2 1 Z " fill="#F7F7F8" transform="translate(62,23)"/>
<path d="M0 0 C2 1 2 1 2 1 Z " fill="#F8F7F8" transform="translate(187,22)"/>
<path d="M0 0 C2 1 2 1 2 1 Z " fill="#F6F7F6" transform="translate(149,11)"/>
<path d="M0 0 C2 1 2 1 2 1 Z " fill="#F7F5F6" transform="translate(152,10)"/>
<path d="" fill="#F3F4F4" transform="translate(0,0)"/>
<path d="" fill="#F4F4F6" transform="translate(0,0)"/>
<path d="M0 0 C2 1 2 1 2 1 Z " fill="#F6F6F6" transform="translate(176,2)"/>
<path d="" fill="#F1F3F1" transform="translate(0,0)"/>
<path d="" fill="#F6F4F4" transform="translate(0,0)"/>
<path d="" fill="#F5F5F6" transform="translate(0,0)"/>
<path d="" fill="#F2F2F3" transform="translate(0,0)"/>
<path d="" fill="#F7F7F7" transform="translate(0,0)"/>
<path d="" fill="#F9F8F8" transform="translate(0,0)"/>
<path d="" fill="#F4F4F3" transform="translate(0,0)"/>
<path d="" fill="#F5F4F5" transform="translate(0,0)"/>
<path d="" fill="#F3F5F4" transform="translate(0,0)"/>
<path d="" fill="#F5F6F6" transform="translate(0,0)"/>
<path d="" fill="#F3F3F3" transform="translate(0,0)"/>
<path d="" fill="#F1F3F2" transform="translate(0,0)"/>
<path d="" fill="#F2F2F4" transform="translate(0,0)"/>
<path d="" fill="#F5F3F3" transform="translate(0,0)"/>
<path d="" fill="#F3F4F6" transform="translate(0,0)"/>
<path d="" fill="#F5F4F6" transform="translate(0,0)"/>
<path d="" fill="#F4F2F3" transform="translate(0,0)"/>
<path d="" fill="#F4F6F4" transform="translate(0,0)"/>
<path d="" fill="#F4F4F4" transform="translate(0,0)"/>
<path d="" fill="#F6F5F8" transform="translate(0,0)"/>
<path d="" fill="#F6F4F6" transform="translate(0,0)"/>
<path d="" fill="#F4F4F5" transform="translate(0,0)"/>
<path d="" fill="#F2F4F4" transform="translate(0,0)"/>
<path d="" fill="#F5F4F4" transform="translate(0,0)"/>
<path d="" fill="#F3F4F3" transform="translate(0,0)"/>
<path d="" fill="#F3F2F3" transform="translate(0,0)"/>
<path d="" fill="#F7F7F5" transform="translate(0,0)"/>
<path d="" fill="#F2F2F2" transform="translate(0,0)"/>
<path d="" fill="#F9F7FA" transform="translate(0,0)"/>
<path d="" fill="#FBFBFB" transform="translate(0,0)"/>
<path d="" fill="#F9F8F6" transform="translate(0,0)"/>
<path d="" fill="#F9F8FA" transform="translate(0,0)"/>
<path d="" fill="#FAFAFB" transform="translate(0,0)"/>
<path d="" fill="#F9FAF9" transform="translate(0,0)"/>
<path d="" fill="#FAF9FA" transform="translate(0,0)"/>
<path d="" fill="#F9F6F8" transform="translate(0,0)"/>
<path d="" fill="#F9F8FA" transform="translate(0,0)"/>
<path d="" fill="#FCFBFC" transform="translate(0,0)"/>
<path d="" fill="#FAF9F9" transform="translate(0,0)"/>
<path d="" fill="#F9F9FB" transform="translate(0,0)"/>
<path d="" fill="#F9F9F9" transform="translate(0,0)"/>
<path d="" fill="#FAFCFC" transform="translate(0,0)"/>
<path d="" fill="#FBFBFC" transform="translate(0,0)"/>
<path d="" fill="#F6FAF9" transform="translate(0,0)"/>
<path d="" fill="#FBFDFC" transform="translate(0,0)"/>
<path d="" fill="#FBFBFB" transform="translate(0,0)"/>
<path d="" fill="#FBF8FB" transform="translate(0,0)"/>
<path d="" fill="#F9FBFA" transform="translate(0,0)"/>
<path d="" fill="#F8F9FA" transform="translate(0,0)"/>
<path d="" fill="#F7F8F8" transform="translate(0,0)"/>
<path d="" fill="#FAF7F8" transform="translate(0,0)"/>
<path d="" fill="#F9F8F8" transform="translate(0,0)"/>
<path d="" fill="#F8FCFB" transform="translate(0,0)"/>
<path d="" fill="#F9F8F9" transform="translate(0,0)"/>
<path d="" fill="#F9F8F8" transform="translate(0,0)"/>
<path d="" fill="#F8FAFA" transform="translate(0,0)"/>
<path d="" fill="#FAF9F8" transform="translate(0,0)"/>
<path d="" fill="#F7F9F7" transform="translate(0,0)"/>
<path d="" fill="#F7F9F9" transform="translate(0,0)"/>
<path d="" fill="#FAF8F9" transform="translate(0,0)"/>
<path d="" fill="#F8F8FA" transform="translate(0,0)"/>
<path d="" fill="#FAFAF9" transform="translate(0,0)"/>
<path d="" fill="#FDFBFB" transform="translate(0,0)"/>
<path d="" fill="#FAF8F9" transform="translate(0,0)"/>
<path d="" fill="#FAF9FA" transform="translate(0,0)"/>
<path d="" fill="#F9F9FB" transform="translate(0,0)"/>
<path d="" fill="#FBFCFC" transform="translate(0,0)"/>
<path d="" fill="#FBFAFB" transform="translate(0,0)"/>
<path d="" fill="#FAF9FB" transform="translate(0,0)"/>
<path d="" fill="#FBFAFC" transform="translate(0,0)"/>
<path d="" fill="#F3F2F4" transform="translate(0,0)"/>
<path d="" fill="#FAF9FB" transform="translate(0,0)"/>
<path d="" fill="#F6F6F8" transform="translate(0,0)"/>
<path d="" fill="#F7FBFA" transform="translate(0,0)"/>
<path d="" fill="#F9F9FA" transform="translate(0,0)"/>
<path d="" fill="#F8F7F8" transform="translate(0,0)"/>
<path d="" fill="#FAFBFC" transform="translate(0,0)"/>
<path d="" fill="#FAF9FB" transform="translate(0,0)"/>
<path d="" fill="#F8F8F8" transform="translate(0,0)"/>
<path d="" fill="#F7F7F6" transform="translate(0,0)"/>
<path d="" fill="#FAFBFB" transform="translate(0,0)"/>
<path d="" fill="#F7FAF9" transform="translate(0,0)"/>
<path d="" fill="#F9FAF9" transform="translate(0,0)"/>
<path d="" fill="#F8FAF9" transform="translate(0,0)"/>
<path d="" fill="#FAF9FA" transform="translate(0,0)"/>
<path d="" fill="#FDF9FB" transform="translate(0,0)"/>
<path d="" fill="#FBF9FC" transform="translate(0,0)"/>
<path d="" fill="#F8F9F9" transform="translate(0,0)"/>
<path d="" fill="#F7F9F8" transform="translate(0,0)"/>
<path d="" fill="#FBFCFC" transform="translate(0,0)"/>
<path d="" fill="#FBFAFC" transform="translate(0,0)"/>
<path d="" fill="#FAFBFC" transform="translate(0,0)"/>
<path d="" fill="#FBFDFB" transform="translate(0,0)"/>
<path d="" fill="#FBFEFE" transform="translate(0,0)"/>
<path d="" fill="#F9F9FB" transform="translate(0,0)"/>
<path d="" fill="#FBFAFB" transform="translate(0,0)"/>
<path d="" fill="#F9FAFA" transform="translate(0,0)"/>
<path d="" fill="#F9FAFB" transform="translate(0,0)"/>
<path d="" fill="#FAFCFB" transform="translate(0,0)"/>
<path d="" fill="#FAFBFB" transform="translate(0,0)"/>
<path d="" fill="#FAFAFA" transform="translate(0,0)"/>
<path d="" fill="#FAFBFB" transform="translate(0,0)"/>
<path d="" fill="#FBFAFB" transform="translate(0,0)"/>
<path d="" fill="#FAFAF8" transform="translate(0,0)"/>
<path d="" fill="#FAFAFA" transform="translate(0,0)"/>
<path d="" fill="#FBFAFB" transform="translate(0,0)"/>
<path d="" fill="#FBFEFD" transform="translate(0,0)"/>
<path d="" fill="#FAFCF9" transform="translate(0,0)"/>
<path d="" fill="#FDFDFE" transform="translate(0,0)"/>
<path d="" fill="#FAFBFA" transform="translate(0,0)"/>
<path d="" fill="#FBFBFC" transform="translate(0,0)"/>
<path d="" fill="#FBFCFB" transform="translate(0,0)"/>
<path d="" fill="#FBFBFB" transform="translate(0,0)"/>
<path d="" fill="#FAFBFB" transform="translate(0,0)"/>
<path d="" fill="#FCFCFB" transform="translate(0,0)"/>
<path d="" fill="#FBFCFA" transform="translate(0,0)"/>
<path d="" fill="#FCFAFC" transform="translate(0,0)"/>
<path d="" fill="#FBFBFC" transform="translate(0,0)"/>
<path d="" fill="#FCFBFA" transform="translate(0,0)"/>
<path d="" fill="#FBFBFB" transform="translate(0,0)"/>
<path d="" fill="#FCFBFD" transform="translate(0,0)"/>
<path d="" fill="#FCFCFC" transform="translate(0,0)"/>
<path d="" fill="#FCFAFB" transform="translate(0,0)"/>
<path d="" fill="#FBFBF9" transform="translate(0,0)"/>
<path d="" fill="#FAFCFC" transform="translate(0,0)"/>
<path d="" fill="#FBFBFC" transform="translate(0,0)"/>
<path d="" fill="#FAFBFB" transform="translate(0,0)"/>
<path d="" fill="#FAF8FB" transform="translate(0,0)"/>
<path d="" fill="#F9F8FA" transform="translate(0,0)"/>
<path d="" fill="#F8FAFA" transform="translate(0,0)"/>
<path d="" fill="#FBFBFC" transform="translate(0,0)"/>
<path d="" fill="#FBFCFB" transform="translate(0,0)"/>
<path d="" fill="#FBFBFD" transform="translate(0,0)"/>
<path d="" fill="#F7FAFA" transform="translate(0,0)"/>
<path d="" fill="#FBF9FC" transform="translate(0,0)"/>
<path d="" fill="#FAF9F9" transform="translate(0,0)"/>
<path d="" fill="#F8FBFB" transform="translate(0,0)"/>
<path d="" fill="#F8F7F8" transform="translate(0,0)"/>
<path d="" fill="#F9F8F9" transform="translate(0,0)"/>
<path d="" fill="#F8F7F8" transform="translate(0,0)"/>
<path d="" fill="#F7F8F9" transform="translate(0,0)"/>
<path d="" fill="#FAF8F9" transform="translate(0,0)"/>
<path d="" fill="#F9FAFA" transform="translate(0,0)"/>
<path d="" fill="#F5F4F5" transform="translate(0,0)"/>
<path d="" fill="#F7F7F8" transform="translate(0,0)"/>
<path d="" fill="#F8F7F7" transform="translate(0,0)"/>
<path d="" fill="#FAF8F9" transform="translate(0,0)"/>
<path d="" fill="#F8F7F8" transform="translate(0,0)"/>
<path d="" fill="#FBFBFB" transform="translate(0,0)"/>
<path d="" fill="#F5F6F7" transform="translate(0,0)"/>
<path d="" fill="#F5F6F7" transform="translate(0,0)"/>
<path d="" fill="#FAFBFA" transform="translate(0,0)"/>
<path d="" fill="#F7F8F8" transform="translate(0,0)"/>
<path d="" fill="#F2F4F5" transform="translate(0,0)"/>
<path d="" fill="#F9F5F8" transform="translate(0,0)"/>
<path d="" fill="#F9FBFA" transform="translate(0,0)"/>
<path d="" fill="#F9F8F8" transform="translate(0,0)"/>
<path d="" fill="#F6F6F5" transform="translate(0,0)"/>
<path d="" fill="#F9FBF9" transform="translate(0,0)"/>
<path d="" fill="#F6F7F8" transform="translate(0,0)"/>
<path d="" fill="#F6F7F9" transform="translate(0,0)"/>
<path d="" fill="#F8F6F9" transform="translate(0,0)"/>
<path d="" fill="#F6F7F8" transform="translate(0,0)"/>
<path d="" fill="#F4F2F5" transform="translate(0,0)"/>
<path d="" fill="#F8F7F6" transform="translate(0,0)"/>
<path d="" fill="#F7F7F6" transform="translate(0,0)"/>
<path d="" fill="#F3F3F4" transform="translate(0,0)"/>
<path d="" fill="#F7F8F7" transform="translate(0,0)"/>
<path d="" fill="#F6F5F7" transform="translate(0,0)"/>
<path d="" fill="#F2F5F5" transform="translate(0,0)"/>
<path d="" fill="#F8F5F8" transform="translate(0,0)"/>
<path d="" fill="#F4F3F3" transform="translate(0,0)"/>
<path d="" fill="#F6F7F8" transform="translate(0,0)"/>
<path d="" fill="#F9F8F9" transform="translate(0,0)"/>
<path d="" fill="#F7F6F5" transform="translate(0,0)"/>
<path d="" fill="#F4F3F5" transform="translate(0,0)"/>
<path d="" fill="#F5F4F7" transform="translate(0,0)"/>
<path d="" fill="#F4F6F5" transform="translate(0,0)"/>
</svg>
